<?xml version="1.0" encoding="UTF-8" standalone="no"?>
<svg
   xmlns:dc="http://purl.org/dc/elements/1.1/"
   xmlns:cc="http://creativecommons.org/ns#"
   xmlns:rdf="http://www.w3.org/1999/02/22-rdf-syntax-ns#"
   xmlns:svg="http://www.w3.org/2000/svg"
   xmlns="http://www.w3.org/2000/svg"
   xmlns:sodipodi="http://sodipodi.sourceforge.net/DTD/sodipodi-0.dtd"
   xmlns:inkscape="http://www.inkscape.org/namespaces/inkscape"
   version="1.0"
   width="1280.000000pt"
   height="1119.000000pt"
   viewBox="0 0 1280.000000 1119.000000"
   preserveAspectRatio="xMidYMid meet"
   id="svg8"
   sodipodi:docname="favicon.svg"
   inkscape:version="0.92.5 (2060ec1f9f, 2020-04-08)">
  <defs
     id="defs12" />
  <sodipodi:namedview
     pagecolor="#ffffff"
     bordercolor="#666666"
     borderopacity="1"
     objecttolerance="10"
     gridtolerance="10"
     guidetolerance="10"
     inkscape:pageopacity="0"
     inkscape:pageshadow="2"
     inkscape:window-width="1359"
     inkscape:window-height="847"
     id="namedview10"
     showgrid="false"
     inkscape:pagecheckerboard="true"
     inkscape:zoom="0.15817694"
     inkscape:cx="865.9774"
     inkscape:cy="746"
     inkscape:window-x="846"
     inkscape:window-y="368"
     inkscape:window-maximized="0"
     inkscape:current-layer="svg8" />
  <metadata
     id="metadata2">
Created by potrace 1.15, written by Peter Selinger 2001-2017
<rdf:RDF>
  <cc:Work
     rdf:about="">
    <dc:format>image/svg+xml</dc:format>
    <dc:type
       rdf:resource="http://purl.org/dc/dcmitype/StillImage" />
    <dc:title></dc:title>
  </cc:Work>
</rdf:RDF>
</metadata>
  <g
     transform="matrix(0.1,0,0,-0.1,0,1119)"
     id="g6"
     style="fill:#ce1cd2;stroke:none;fill-opacity:1">
    <path
       d="m 5840,10710 v -480 h 255 255 V 8780 7330 H 4490 2630 v 549 549 l 53,30 c 71,40 152,129 187,204 42,90 52,175 48,416 -3,187 -5,213 -21,229 -17,17 -61,18 -711,21 -690,2 -693,2 -719,-19 l -27,-20 v -233 c 0,-128 5,-258 10,-287 24,-131 126,-265 243,-322 l 57,-28 v -543 -544 l -242,-5 c -275,-5 -314,-11 -463,-82 -212,-99 -352,-261 -404,-466 l -17,-69 -32,45 c -63,89 -135,114 -332,115 -117,0 -130,-9 -130,-98 -1,-64 -2,-68 -33,-87 -19,-12 -44,-44 -62,-79 L 5,6546 v -241 -241 l 30,-60 c 18,-35 43,-67 62,-79 29,-18 32,-25 33,-68 0,-87 1,-87 158,-87 178,0 203,7 275,81 l 57,58 V 4807 c 0,-1010 3,-1169 25,-1238 6,-18 -3,-19 -299,-19 H 40 v -595 -595 h 629 629 l -45,-67 c -98,-146 -172,-325 -215,-514 -20,-89 -23,-131 -23,-299 0,-168 3,-210 23,-299 65,-289 197,-534 397,-736 502,-509 1280,-589 1877,-193 121,81 324,282 400,398 106,162 189,353 221,512 l 13,63 545,3 544,2 12,-62 c 47,-240 191,-511 376,-705 216,-226 479,-371 785,-435 88,-18 139,-22 287,-22 199,0 308,17 480,76 476,160 863,597 965,1086 l 13,62 h 542 543 l 17,-77 c 58,-260 196,-511 390,-708 501,-509 1280,-589 1877,-193 121,80 324,282 400,398 116,176 199,379 234,570 24,130 24,390 0,520 -33,184 -115,390 -215,543 l -51,77 h 380 380 v 595 c 0,588 0,595 -20,595 -20,0 -20,7 -20,3340 v 3340 h 195 195 v 480 480 H 9320 5840 Z M 10890,8610 V 7580 l -1657,2 -1658,3 -3,1028 -2,1027 h 1660 1660 z M 5293,2348 c -4,-7 -24,-38 -44,-68 -146,-220 -239,-536 -239,-814 v -51 h -519 -518 l -6,121 c -14,275 -96,532 -238,750 l -49,74 h 811 c 646,0 809,-3 802,-12 z m 3970,-55 c -145,-217 -228,-472 -240,-738 l -6,-140 -521,2 -521,3 -7,132 c -7,152 -26,260 -69,390 -34,105 -107,256 -167,346 -23,35 -42,65 -42,68 0,2 364,4 809,4 h 809 z"
       id="path4"
       inkscape:connector-curvature="0"
       style="fill:#ce1cd2;fill-opacity:1" />
  </g>
</svg>
